<svg width="45" height="44" viewBox="0 0 45 44" fill="none" xmlns="http://www.w3.org/2000/svg">
<rect x="0.367188" y="0.000976562" width="44" height="44" rx="5" fill="white" fill-opacity="0.1"/>
<path d="M33.5625 17.0493H26.3935V15.001H33.5625V17.0493ZM35.3035 27.2907C34.8939 28.6221 33.2553 30.3632 30.0804 30.3632C26.9055 30.3632 24.3452 28.6221 24.3452 24.5255C24.3452 20.5314 26.7007 18.4831 29.978 18.4831C33.1528 18.4831 35.0987 20.3265 35.5084 22.9893C35.6108 23.5014 35.6108 24.2183 35.6108 25.2425H27.4176C27.52 28.5197 31.0021 28.6221 32.1287 27.2907H35.3035ZM27.4176 23.1942H32.5383C32.4359 21.6579 31.4118 20.941 29.978 20.941C28.5442 20.941 27.7249 21.6579 27.4176 23.1942ZM17.6882 30.3632H11.0312V15.001H18.2003C23.8331 15.1034 23.9355 20.5314 20.9655 22.0676C24.4476 23.399 24.55 30.3632 17.6882 30.3632ZM14.1037 21.1459H17.7906C20.351 21.1459 20.7607 18.0734 17.4834 18.0734H14.1037V21.1459ZM17.5858 24.2183H14.1037V27.2907H17.4834C20.6582 27.2907 20.4534 24.2183 17.5858 24.2183Z" fill="white"/>
</svg>
