<svg width="44" height="44" viewBox="0 0 44 44" fill="none" xmlns="http://www.w3.org/2000/svg">
<rect x="0.199219" y="0.345459" width="43.2" height="43.2" rx="4.90909" fill="#053EFF" fill-opacity="0.08"/>
<g clip-path="url(#clip0_434_1993)">
<path d="M20.061 21.3564C20.4685 21.1515 20.7766 20.9232 20.9877 20.6765C21.3632 20.2322 21.5486 19.643 21.5486 18.9127C21.5486 18.2021 21.3632 17.5945 20.9926 17.0852C20.374 16.2555 19.327 15.8308 17.8468 15.8087H11.9824V27.7793H17.4504C18.0665 27.7793 18.6372 27.7265 19.165 27.6185C19.6928 27.5093 20.1494 27.3092 20.536 27.0171C20.8797 26.763 21.1669 26.4476 21.3951 26.0757C21.756 25.5136 21.9364 24.8766 21.9364 24.1671C21.9364 23.4798 21.7781 22.8943 21.4639 22.4132C21.146 21.9321 20.6796 21.5798 20.061 21.3564ZM14.4016 17.8879H17.0429C17.6234 17.8879 18.1021 17.9505 18.4777 18.0744C18.9122 18.2549 19.1294 18.6219 19.1294 19.1815C19.1294 19.6835 18.9637 20.0346 18.636 20.2322C18.3059 20.4298 17.8775 20.5292 17.3522 20.5292H14.4016V17.8879ZM18.5783 25.4915C18.2862 25.6326 17.875 25.7026 17.3485 25.7026H14.4016V22.5102H17.389C17.9094 22.5139 18.3144 22.5826 18.6041 22.7115C19.1196 22.9447 19.3761 23.3718 19.3761 23.9965C19.3761 24.7329 19.111 25.2288 18.5783 25.4915Z" fill="#053EFF"/>
<path d="M29.7316 16.3671H24.5312V17.8571H29.7316V16.3671Z" fill="#053EFF"/>
<path d="M31.5379 22.2475C31.4299 21.554 31.1918 20.944 30.8211 20.4175C30.4149 19.821 29.8994 19.384 29.2722 19.1079C28.6475 18.8305 27.9442 18.6918 27.1611 18.693C25.8466 18.693 24.7788 19.1042 23.9528 19.9204C23.1292 20.739 22.7168 21.9161 22.7168 23.4503C22.7168 25.0864 23.1722 26.2683 24.0878 26.9937C24.9997 27.7203 26.0528 28.0824 27.2483 28.0824C28.6953 28.0824 29.8208 27.6516 30.6248 26.7924C31.139 26.2499 31.4299 25.716 31.4937 25.1919H29.0979C28.9592 25.4509 28.7984 25.6534 28.6143 25.8007C28.2805 26.0707 27.846 26.2057 27.3133 26.2057C26.8064 26.2057 26.3768 26.0941 26.0184 25.8719C25.4268 25.516 25.1175 24.8925 25.0783 24.0051H31.6165C31.6263 23.2404 31.6017 22.6525 31.5379 22.2475ZM25.1372 22.477C25.2231 21.9014 25.4317 21.4448 25.7631 21.1072C26.0945 20.7709 26.5634 20.6016 27.1636 20.6003C27.7171 20.6003 28.1798 20.7587 28.5566 21.0766C28.9285 21.3969 29.1384 21.8621 29.1814 22.477H25.1372Z" fill="#053EFF"/>
</g>
<defs>
<clipPath id="clip0_434_1993">
<rect width="19.6364" height="19.6364" fill="white" transform="translate(11.9805 12.1273)"/>
</clipPath>
</defs>
</svg>
