<svg width="45" height="44" viewBox="0 0 45 44" fill="none" xmlns="http://www.w3.org/2000/svg">
<rect x="0.367188" y="0.000976562" width="44" height="44" rx="5" fill="white" fill-opacity="0.1"/>
<g clip-path="url(#clip0_434_1949)">
<path d="M32.3476 17.881C32.3008 16.8184 32.1289 16.0878 31.8827 15.4547C31.6288 14.7827 31.2381 14.1811 30.7262 13.681C30.2261 13.1731 29.6205 12.7784 28.9563 12.5284C28.3196 12.2823 27.5928 12.1104 26.5301 12.0635C25.4595 12.0127 25.1197 12.001 22.4043 12.001C19.6889 12.001 19.349 12.0127 18.2824 12.0596C17.2197 12.1064 16.4891 12.2784 15.8562 12.5245C15.1841 12.7784 14.5825 13.1691 14.0824 13.681C13.5744 14.1811 13.1799 14.7867 12.9298 15.4509C12.6836 16.0878 12.5118 16.8144 12.4649 17.8771C12.4141 18.9477 12.4023 19.2876 12.4023 22.0029C12.4023 24.7183 12.4141 25.0582 12.4609 26.1248C12.5078 27.1875 12.6798 27.9181 12.926 28.5511C13.1799 29.2231 13.5744 29.8247 14.0824 30.3249C14.5825 30.8328 15.1881 31.2274 15.8523 31.4774C16.4891 31.7236 17.2157 31.8955 18.2786 31.9423C19.3451 31.9893 19.6851 32.0009 22.4005 32.0009C25.1158 32.0009 25.4557 31.9893 26.5224 31.9423C27.585 31.8955 28.3156 31.7236 28.9485 31.4774C30.2926 30.9578 31.3553 29.8951 31.875 28.5511C32.121 27.9143 32.293 27.1875 32.3398 26.1248C32.3867 25.0582 32.3984 24.7183 32.3984 22.0029C32.3984 19.2876 32.3945 18.9477 32.3476 17.881ZM30.5466 26.0467C30.5035 27.0234 30.3395 27.5509 30.2027 27.9025C29.8667 28.7738 29.1752 29.4653 28.3039 29.8014C27.9522 29.9381 27.421 30.1022 26.448 30.1451C25.3931 30.1921 25.0768 30.2037 22.4083 30.2037C19.7397 30.2037 19.4194 30.1921 18.3683 30.1451C17.3916 30.1022 16.8641 29.9381 16.5125 29.8014C16.0789 29.6411 15.6842 29.3872 15.3639 29.0551C15.0318 28.7308 14.7778 28.3401 14.6176 27.9065C14.4808 27.5549 14.3168 27.0234 14.2739 26.0507C14.2269 24.9958 14.2153 24.6792 14.2153 22.0107C14.2153 19.3422 14.2269 19.0218 14.2739 17.9709C14.3168 16.9942 14.4808 16.4667 14.6176 16.1151C14.7778 15.6814 15.0318 15.2868 15.3679 14.9663C15.692 14.6342 16.0827 14.3803 16.5165 14.2202C16.8681 14.0834 17.3995 13.9194 18.3723 13.8763C19.4272 13.8295 19.7437 13.8177 22.4121 13.8177C25.0846 13.8177 25.4009 13.8295 26.452 13.8763C27.4288 13.9194 27.9562 14.0834 28.3078 14.2202C28.7414 14.3803 29.1361 14.6342 29.4564 14.9663C29.7885 15.2907 30.0425 15.6814 30.2027 16.1151C30.3395 16.4667 30.5035 16.998 30.5466 17.9709C30.5934 19.0258 30.6052 19.3422 30.6052 22.0107C30.6052 24.6792 30.5934 24.9918 30.5466 26.0467Z" fill="white"/>
<path d="M22.4033 16.8652C19.5669 16.8652 17.2656 19.1664 17.2656 22.003C17.2656 24.8395 19.5669 27.1407 22.4033 27.1407C25.2399 27.1407 27.5411 24.8395 27.5411 22.003C27.5411 19.1664 25.2399 16.8652 22.4033 16.8652ZM22.4033 25.3357C20.5632 25.3357 19.0706 23.8432 19.0706 22.003C19.0706 20.1627 20.5632 18.6702 22.4033 18.6702C24.2436 18.6702 25.7361 20.1627 25.7361 22.003C25.7361 23.8432 24.2436 25.3357 22.4033 25.3357Z" fill="white"/>
<path d="M28.9439 16.6621C28.9439 17.3244 28.4069 17.8615 27.7444 17.8615C27.082 17.8615 26.5449 17.3244 26.5449 16.6621C26.5449 15.9996 27.082 15.4626 27.7444 15.4626C28.4069 15.4626 28.9439 15.9996 28.9439 16.6621Z" fill="white"/>
</g>
<defs>
<clipPath id="clip0_434_1949">
<rect width="20" height="20" fill="white" transform="translate(12.3672 12.001)"/>
</clipPath>
</defs>
</svg>
