<svg width="44" height="45" viewBox="0 0 44 45" fill="none" xmlns="http://www.w3.org/2000/svg">
<path d="M28.538 17.0078C28.538 16.3431 27.9993 15.8064 27.3371 15.8064C26.6748 15.8064 26.1356 16.3431 26.1356 17.0078C26.1356 17.6701 26.6748 18.2068 27.3371 18.2068C27.9993 18.2068 28.538 17.6701 28.538 17.0078Z" fill="url(#paint0_linear_644_3685)"/>
<path d="M30.1382 26.3858C30.0937 27.3609 29.9306 27.8907 29.7952 28.2425C29.6133 28.7091 29.3964 29.0427 29.0445 29.3926C28.6966 29.7425 28.363 29.9589 27.8965 30.1388C27.5446 30.2762 27.0128 30.4398 26.0378 30.4863C24.9837 30.5327 24.6713 30.5426 21.9981 30.5426C19.3275 30.5426 19.0126 30.5327 17.9585 30.4863C16.9835 30.4398 16.4542 30.2762 16.1023 30.1388C15.6333 29.9589 15.3022 29.7425 14.9523 29.3926C14.5999 29.0427 14.383 28.7091 14.2036 28.2425C14.0681 27.8907 13.9026 27.3609 13.8606 26.3858C13.8092 25.3317 13.7998 25.0144 13.7998 22.3467C13.7998 19.6735 13.8092 19.3587 13.8606 18.3046C13.9026 17.3295 14.0681 16.8002 14.2036 16.4454C14.383 15.9793 14.5999 15.6477 14.9523 15.2978C15.3022 14.9484 15.6333 14.7315 16.1023 14.5496C16.4542 14.4117 16.9835 14.2506 17.9585 14.2042C19.0126 14.1577 19.3275 14.1458 21.9981 14.1458C24.6713 14.1458 24.9837 14.1577 26.0378 14.2042C27.0128 14.2506 27.5446 14.4117 27.8965 14.5496C28.363 14.7315 28.6966 14.9484 29.0445 15.2978C29.3964 15.6477 29.6133 15.9793 29.7952 16.4454C29.9306 16.8002 30.0937 17.3295 30.1382 18.3046C30.1871 19.3587 30.199 19.6735 30.199 22.3467C30.199 25.0144 30.1871 25.3317 30.1382 26.3858ZM31.9386 18.2225C31.8897 17.157 31.7216 16.4291 31.4721 15.795C31.2181 15.1372 30.8775 14.5798 30.3201 14.0223C29.7651 13.4673 29.2076 13.1268 28.5498 12.8698C27.9133 12.6227 27.1878 12.4527 26.1218 12.4062C25.0558 12.3548 24.7153 12.3455 21.9981 12.3455C19.2835 12.3455 18.9405 12.3548 17.8745 12.4062C16.811 12.4527 16.086 12.6227 15.4465 12.8698C14.7912 13.1268 14.2337 13.4673 13.6787 14.0223C13.1212 14.5798 12.7807 15.1372 12.5242 15.795C12.2771 16.4291 12.1091 17.157 12.0577 18.2225C12.0113 19.2885 11.9994 19.6295 11.9994 22.3467C11.9994 25.0614 12.0113 25.4019 12.0577 26.4679C12.1091 27.5314 12.2771 28.2589 12.5242 28.8959C12.7807 29.5512 13.1212 30.1112 13.6787 30.6661C14.2337 31.2211 14.7912 31.5641 15.4465 31.8206C16.086 32.0677 16.811 32.2357 17.8745 32.2847C18.9405 32.3336 19.2835 32.3455 21.9981 32.3455C24.7153 32.3455 25.0558 32.3336 26.1218 32.2847C27.1878 32.2357 27.9133 32.0677 28.5498 31.8206C29.2076 31.5641 29.7651 31.2211 30.3201 30.6661C30.8775 30.1112 31.2181 29.5512 31.4721 28.8959C31.7216 28.2589 31.8897 27.5314 31.9386 26.4679C31.9875 25.4019 31.9994 25.0614 31.9994 22.3467C31.9994 19.6295 31.9875 19.2885 31.9386 18.2225Z" fill="url(#paint1_linear_644_3685)"/>
<path d="M21.9982 25.6771C20.1582 25.6771 18.6652 24.1866 18.6652 22.3466C18.6652 20.5038 20.1582 19.0113 21.9982 19.0113C23.8386 19.0113 25.3336 20.5038 25.3336 22.3466C25.3336 24.1866 23.8386 25.6771 21.9982 25.6771ZM21.9982 17.2084C19.1619 17.2084 16.8649 19.5104 16.8649 22.3466C16.8649 25.1804 19.1619 27.48 21.9982 27.48C24.8344 27.48 27.1339 25.1804 27.1339 22.3466C27.1339 19.5104 24.8344 17.2084 21.9982 17.2084Z" fill="url(#paint2_linear_644_3685)"/>
<rect x="-0.000610352" y="0.345459" width="44" height="44" rx="5" fill="#B900B4" fill-opacity="0.1"/>
<defs>
<linearGradient id="paint0_linear_644_3685" x1="12.1798" y1="32.1387" x2="30.3336" y2="13.985" gradientUnits="userSpaceOnUse">
<stop stop-color="#FFD521"/>
<stop offset="0.05" stop-color="#FFD521"/>
<stop offset="0.501119" stop-color="#F50000"/>
<stop offset="0.95" stop-color="#B900B4"/>
<stop offset="0.950079" stop-color="#B900B4"/>
<stop offset="1" stop-color="#B900B4"/>
</linearGradient>
<linearGradient id="paint1_linear_644_3685" x1="12.1798" y1="32.1636" x2="30.3485" y2="13.9949" gradientUnits="userSpaceOnUse">
<stop stop-color="#FFD521"/>
<stop offset="0.05" stop-color="#FFD521"/>
<stop offset="0.501119" stop-color="#F50000"/>
<stop offset="0.95" stop-color="#B900B4"/>
<stop offset="0.950079" stop-color="#B900B4"/>
<stop offset="1" stop-color="#B900B4"/>
</linearGradient>
<linearGradient id="paint2_linear_644_3685" x1="12.1845" y1="32.164" x2="30.3488" y2="13.9997" gradientUnits="userSpaceOnUse">
<stop stop-color="#FFD521"/>
<stop offset="0.05" stop-color="#FFD521"/>
<stop offset="0.501119" stop-color="#F50000"/>
<stop offset="0.95" stop-color="#B900B4"/>
<stop offset="0.950079" stop-color="#B900B4"/>
<stop offset="1" stop-color="#B900B4"/>
</linearGradient>
</defs>
</svg>
