<svg width="44" height="44" viewBox="0 0 44 44" fill="none" xmlns="http://www.w3.org/2000/svg">
<rect x="0.236328" y="0.345459" width="43.2" height="43.2" rx="4.90909" fill="#0E76A8" fill-opacity="0.08"/>
<g clip-path="url(#clip0_434_1991)">
<path d="M31.6488 31.7638V31.763H31.6537V24.5613C31.6537 21.0382 30.8953 18.3243 26.7765 18.3243C24.7965 18.3243 23.4678 19.4109 22.9254 20.441H22.8681V18.6532H18.9629V31.763H23.0293V25.2715C23.0293 23.5623 23.3533 21.9096 25.4699 21.9096C27.5555 21.9096 27.5865 23.8602 27.5865 25.3812V31.7638H31.6488Z" fill="#0E76A8"/>
<path d="M12.3418 18.6539H16.4131V31.7637H12.3418V18.6539Z" fill="#0E76A8"/>
<path d="M14.3756 12.1273C13.0739 12.1273 12.0176 13.1836 12.0176 14.4853C12.0176 15.787 13.0739 16.8654 14.3756 16.8654C15.6773 16.8654 16.7336 15.787 16.7336 14.4853C16.7328 13.1836 15.6765 12.1273 14.3756 12.1273V12.1273Z" fill="#0E76A8"/>
</g>
<defs>
<clipPath id="clip0_434_1991">
<rect width="19.6364" height="19.6364" fill="white" transform="translate(12.0176 12.1273)"/>
</clipPath>
</defs>
</svg>
