<svg width="45" height="44" viewBox="0 0 45 44" fill="none" xmlns="http://www.w3.org/2000/svg">
<rect x="0.367188" y="0.000976562" width="44" height="44" rx="5" fill="white" fill-opacity="0.1"/>
<g clip-path="url(#clip0_434_1948)">
<path d="M32.3623 32.0011V32.0002H32.3673V24.6652C32.3673 21.0769 31.5948 18.3127 27.3998 18.3127C25.3831 18.3127 24.0297 19.4194 23.4772 20.4686H23.4189V18.6477H19.4414V32.0002H23.5831V25.3886C23.5831 23.6477 23.9131 21.9644 26.0689 21.9644C28.1931 21.9644 28.2248 23.9511 28.2248 25.5002V32.0011H32.3623Z" fill="white"/>
<path d="M12.6973 18.6484H16.8439V32.0009H12.6973V18.6484Z" fill="white"/>
<path d="M14.7689 12.001C13.443 12.001 12.3672 13.0768 12.3672 14.4026C12.3672 15.7285 13.443 16.8268 14.7689 16.8268C16.0947 16.8268 17.1705 15.7285 17.1705 14.4026C17.1697 13.0768 16.0939 12.001 14.7689 12.001V12.001Z" fill="white"/>
</g>
<defs>
<clipPath id="clip0_434_1948">
<rect width="20" height="20" fill="white" transform="translate(12.3672 12.001)"/>
</clipPath>
</defs>
</svg>
