<svg class="star" width="15" height="15" viewBox="0 0 15 15" fill="none" xmlns="http://www.w3.org/2000/svg">
    <path d="M8.28064 2.36044L8.28129 2.36176L9.30739 4.41396C9.44038 4.68385 9.65577 4.90394 9.86776 5.06036C10.081 5.21769 10.3542 5.35745 10.6485 5.40649L10.6488 5.40655L12.5102 5.71581C12.7351 5.75329 12.8742 5.8156 12.9511 5.86771C13.0235 5.91679 13.0327 5.94979 13.0332 5.95132L13.0332 5.95142C13.034 5.95382 13.0447 5.98545 13.0153 6.06461C12.9833 6.15062 12.9066 6.28148 12.7446 6.44235L12.7429 6.44404L11.2955 7.89141C11.068 8.11892 10.9236 8.41381 10.8454 8.68705C10.767 8.9606 10.7342 9.28538 10.8039 9.59615L10.8039 9.59615L10.8049 9.60078L11.2192 11.3919C11.2192 11.3921 11.2193 11.3922 11.2193 11.3923C11.2193 11.3924 11.2193 11.3924 11.2193 11.3925C11.2871 11.6867 11.2862 11.8852 11.2647 12.0014C11.2562 12.0473 11.2461 12.074 11.2392 12.0881C11.2234 12.0905 11.1943 12.0921 11.1468 12.0861C11.0283 12.0711 10.8378 12.0113 10.577 11.8573L8.83285 10.8248C8.54086 10.6517 8.20061 10.5869 7.90023 10.5869C7.59921 10.5869 7.26019 10.652 6.96806 10.8219L6.96805 10.8219L6.9635 10.8246L5.21849 11.8576L5.21783 11.858C4.95932 12.0114 4.77029 12.0705 4.65296 12.0851C4.60373 12.0913 4.57425 12.0892 4.55887 12.0865C4.55175 12.0728 4.54095 12.0456 4.53196 11.9975C4.51035 11.882 4.50915 11.6847 4.57674 11.3926L4.57676 11.3925L4.99113 9.60078L4.99114 9.60078L4.99218 9.59615C5.06184 9.28538 5.02903 8.9606 4.95073 8.68705C4.87251 8.41381 4.72805 8.11892 4.50053 7.89141L3.05317 6.44404C2.89231 6.28318 2.81566 6.15208 2.78356 6.06539C2.75389 5.98527 2.76456 5.9529 2.76547 5.95017L2.7655 5.95005L2.76554 5.94993C2.76637 5.94724 2.77629 5.91497 2.84652 5.86725C2.92267 5.8155 3.06106 5.75328 3.28588 5.71581L5.14727 5.40655L5.14727 5.40655L5.14973 5.40614C5.44176 5.35655 5.71331 5.216 5.92453 5.05939C6.13488 4.90342 6.34996 4.68364 6.48284 4.41398L7.50829 2.36307C7.50839 2.36287 7.50849 2.36267 7.50859 2.36247C7.61649 2.14797 7.72154 2.02754 7.79697 1.96672C7.83349 1.93728 7.8601 1.92408 7.87504 1.91832C7.88914 1.91289 7.89578 1.91286 7.89731 1.91286C7.89882 1.91286 7.90522 1.91289 7.91886 1.91815C7.93335 1.92374 7.95947 1.93669 7.99542 1.96581C8.06984 2.02606 8.17396 2.14597 8.28064 2.36044ZM11.2309 12.1015C11.2308 12.1014 11.2315 12.1003 11.2333 12.0985C11.2318 12.1007 11.2309 12.1015 11.2309 12.1015ZM11.251 12.0856C11.2531 12.0845 11.2543 12.0841 11.2544 12.0842C11.2545 12.0843 11.2534 12.0848 11.251 12.0856ZM4.54521 12.0828C4.54528 12.0827 4.54648 12.0831 4.54861 12.0842C4.54621 12.0834 4.54514 12.0829 4.54521 12.0828ZM4.5642 12.0956C4.56592 12.0973 4.56665 12.0983 4.56659 12.0984C4.56652 12.0985 4.56566 12.0976 4.5642 12.0956Z" stroke="#FFC727" stroke-width="1.40068" stroke-linecap="round" stroke-linejoin="round"/>
</svg>