<svg width="5" height="5" viewBox="0 0 20 14" fill="none" xmlns="http://www.w3.org/2000/svg">
<path d="M19.3608 2.96771C19.3608 2.96771 19.1698 1.61944 18.5816 1.02743C17.8368 0.248264 17.0042 0.244444 16.6222 0.198611C13.8875 -1.09275e-07 9.78159 0 9.78159 0H9.77395C9.77395 0 5.66805 -1.09275e-07 2.93333 0.198611C2.55139 0.244444 1.71875 0.248264 0.973958 1.02743C0.385764 1.61944 0.198611 2.96771 0.198611 2.96771C0.198611 2.96771 0 4.55277 0 6.13402V7.61597C0 9.19722 0.194792 10.7823 0.194792 10.7823C0.194792 10.7823 0.385764 12.1305 0.970138 12.7226C1.71493 13.5017 2.69271 13.475 3.12812 13.559C4.69409 13.708 9.77777 13.7538 9.77777 13.7538C9.77777 13.7538 13.8875 13.7462 16.6222 13.5514C17.0042 13.5055 17.8368 13.5017 18.5816 12.7226C19.1698 12.1305 19.3608 10.7823 19.3608 10.7823C19.3608 10.7823 19.5555 9.20103 19.5555 7.61597V6.13402C19.5555 4.55277 19.3608 2.96771 19.3608 2.96771ZM7.75729 9.41492V3.91875L13.0396 6.67638L7.75729 9.41492Z" fill="white"/>
</svg>
